<svg width="1400" height="760" viewBox="0 0 1400 760" fill="none" xmlns="http://www.w3.org/2000/svg">
  <defs>
    <filter id="softShadow" x="-20%" y="-20%" width="140%" height="140%">
      <feDropShadow dx="0" dy="10" stdDeviation="10" flood-color="#0f172a" flood-opacity="0.12"/>
    </filter>
    <linearGradient id="greenChrom" x1="0" y1="0" x2="1" y2="1">
      <stop offset="0" stop-color="#9acd64"/>
      <stop offset="1" stop-color="#386a54"/>
    </linearGradient>
    <linearGradient id="blueChrom" x1="0" y1="0" x2="1" y2="1">
      <stop offset="0" stop-color="#174153"/>
      <stop offset="1" stop-color="#061f2a"/>
    </linearGradient>
  </defs>

  <rect width="1400" height="760" fill="#f7f7f4"/>

  <g opacity="0.72" stroke="#173c46" stroke-width="8" stroke-linecap="round">
    <path d="M1190 78 C1238 112 1248 159 1206 197"/>
    <path d="M1278 64 C1235 105 1230 151 1274 193"/>
    <path d="M1206 95 L1264 182"/>
    <path d="M1196 124 L1247 101"/>
    <path d="M1214 153 L1273 127"/>
    <path d="M1236 184 L1290 158"/>
  </g>

  <g opacity="0.72" stroke="#173c46" stroke-width="8" stroke-linecap="round" transform="translate(1110 585) rotate(28)">
    <path d="M0 15 C45 50 55 98 10 136"/>
    <path d="M88 0 C45 41 38 89 84 131"/>
    <path d="M12 30 L78 118"/>
    <path d="M4 58 L62 32"/>
    <path d="M21 88 L88 60"/>
    <path d="M45 118 L105 90"/>
  </g>

  <g filter="url(#softShadow)">
    <g transform="translate(178 134)">
      <circle cx="264" cy="252" r="38" fill="#6fa75a" opacity="0.92"/>
      <g fill="#6ea85b" opacity="0.9">
        <circle cx="264" cy="195" r="18"/>
        <circle cx="305" cy="212" r="18"/>
        <circle cx="322" cy="252" r="18"/>
        <circle cx="305" cy="292" r="18"/>
        <circle cx="264" cy="309" r="18"/>
        <circle cx="224" cy="292" r="18"/>
        <circle cx="207" cy="252" r="18"/>
        <circle cx="224" cy="212" r="18"/>
      </g>

      <g stroke="#18323b" stroke-width="2" opacity="0.25">
        <path d="M264 197 L264 307"/>
        <path d="M210 252 L320 252"/>
      </g>

      <g transform="rotate(0 264 252)">
        <rect x="243" y="28" width="42" height="190" rx="22" fill="url(#greenChrom)"/>
        <rect x="294" y="28" width="42" height="190" rx="22" fill="url(#greenChrom)"/>
        <rect x="238" y="112" width="104" height="18" rx="9" fill="#47765d" opacity="0.45"/>
      </g>
      <g transform="rotate(90 264 252)">
        <rect x="243" y="28" width="42" height="190" rx="22" fill="url(#greenChrom)"/>
        <rect x="294" y="28" width="42" height="190" rx="22" fill="url(#greenChrom)"/>
        <rect x="238" y="112" width="104" height="18" rx="9" fill="#47765d" opacity="0.45"/>
      </g>
      <g transform="rotate(180 264 252)">
        <rect x="243" y="28" width="42" height="190" rx="22" fill="url(#greenChrom)"/>
        <rect x="294" y="28" width="42" height="190" rx="22" fill="url(#greenChrom)"/>
        <rect x="238" y="112" width="104" height="18" rx="9" fill="#47765d" opacity="0.45"/>
      </g>
      <g transform="rotate(270 264 252)">
        <rect x="243" y="28" width="42" height="190" rx="22" fill="url(#greenChrom)"/>
        <rect x="294" y="28" width="42" height="190" rx="22" fill="url(#greenChrom)"/>
        <rect x="238" y="112" width="104" height="18" rx="9" fill="#47765d" opacity="0.45"/>
      </g>
      <g transform="rotate(38 264 252)">
        <rect x="90" y="205" width="42" height="184" rx="22" fill="url(#blueChrom)"/>
        <rect x="141" y="205" width="42" height="184" rx="22" fill="url(#blueChrom)"/>
        <rect x="86" y="285" width="102" height="18" rx="9" fill="#2e6a73" opacity="0.5"/>
      </g>
      <g transform="rotate(218 264 252)">
        <rect x="90" y="205" width="42" height="184" rx="22" fill="url(#blueChrom)"/>
        <rect x="141" y="205" width="42" height="184" rx="22" fill="url(#blueChrom)"/>
        <rect x="86" y="285" width="102" height="18" rx="9" fill="#2e6a73" opacity="0.5"/>
      </g>
    </g>

    <text x="622" y="197" font-family="Georgia, 'Times New Roman', serif" font-size="34" fill="#111">2n</text>
    <text x="520" y="474" font-family="Georgia, 'Times New Roman', serif" font-size="34" fill="#111">n</text>

    <path d="M544 440 C612 420 594 238 688 242 C705 243 708 252 697 262 C659 294 649 383 683 385 L734 385" stroke="#050505" stroke-width="18" stroke-linecap="round" fill="none"/>
    <text x="646" y="430" font-family="Georgia, 'Times New Roman', serif" font-size="112" font-style="italic" fill="#050505">apGen Lab</text>
    <line x1="605" y1="482" x2="1210" y2="482" stroke="#111" stroke-width="3"/>
    <text x="604" y="524" font-family="Georgia, 'Times New Roman', serif" font-size="42" fill="#111">Genetics never lies</text>
    <text x="1008" y="468" font-family="Georgia, 'Times New Roman', serif" font-size="46" fill="#111">Since 2013</text>
  </g>
</svg>